# xmcd
#
# Track frame offsets:
#	150
#	19230
#	37085
#	58265
#	73965
#	87977
#	103661
#	122599
#	142760
#	157905
#	171076
#	186096
#	201718
#	215966
#	233250
#	257685
#	277760
#	296709
#	310926
#	331484
#
# Disc length: 4663
#
# Revision: 2
# Processed by: cddbd v1.5.1PL0 Copyright (c) Steve Scherf et al.
# Submitted via: audiograbber 1.80.04
# Normalized: r1:DSETVAR1
#
DISCID=30123514
DTITLE=Various Artist - RoadMusic Drivin'/ Day
DYEAR=2001
DGENRE=
TTITLE0=Bad Company - Can't get enough
TTITLE1=ZZ Top - Gimme all your lovin'
TTITLE2=Lynyrd Skainyrd - Sweet home Alabama
TTITLE3=Charlie Sexton - Tennessee Plates
TTITLE4=The Black Crowes - Hard to handle
TTITLE5=Neal Casal - Willow Jane
TTITLE6=Chris Whitley - Kick the stones
TTITLE7=Steve Earl - Copperhead road
TTITLE8=The Georgia Satellites - Keep your hands to yourself
TTITLE9=Izzy Stradlin - Memphis
TTITLE10=Tesla - Gettin' better
TTITLE11=Steppenwolf - Born to be wild
TTITLE12=Mink DeVille - Cadillac walk
TTITLE13=Moon Martin - Bad news
TTITLE14=Billy Idole - L.A. Woman
TTITLE15=Foreigner - Urgent
TTITLE16=The Pretenders - Middle of the road
TTITLE17=Fleetwood Mac - Don't stop
TTITLE18=Chris Rea - The road to hell
TTITLE19=Stranglers - Always the Sun
EXTD=
EXTT0=
EXTT1=
EXTT2=
EXTT3=
EXTT4=
EXTT5=
EXTT6=
EXTT7=
EXTT8=
EXTT9=
EXTT10=
EXTT11=
EXTT12=
EXTT13=
EXTT14=
EXTT15=
EXTT16=
EXTT17=
EXTT18=
EXTT19=
PLAYORDER=
